<?xml version="1.0" encoding="UTF-8"?>
<!DOCTYPE svg PUBLIC "-//W3C//DTD SVG 1.1//EN" "http://www.w3.org/Graphics/SVG/1.1/DTD/svg11.dtd">
<svg version="1.1" xmlns="http://www.w3.org/2000/svg" xmlns:xlink="http://www.w3.org/1999/xlink" x="0" y="0" width="48" height="48" viewBox="0, 0, 48, 48">
  <g id="Layer_1">
    <path d="M40.968,7.032 L37.584,10.416 C41.04,13.896 43.2,18.696 43.2,24 C43.2,34.608 34.608,43.2 24,43.2 C13.392,43.2 4.8,34.608 4.8,24 C4.8,14.208 12.12,6.144 21.6,4.968 L21.6,9.816 C14.784,10.968 9.6,16.872 9.6,24 C9.6,31.944 16.056,38.4 24,38.4 C31.944,38.4 38.4,31.944 38.4,24 C38.4,20.016 36.792,16.416 34.176,13.824 L30.792,17.208 C32.52,18.96 33.6,21.36 33.6,24 C33.6,29.304 29.304,33.6 24,33.6 C18.696,33.6 14.4,29.304 14.4,24 C14.4,19.536 17.472,15.816 21.6,14.736 L21.6,19.872 C20.16,20.712 19.2,22.224 19.2,24 C19.2,26.64 21.36,28.8 24,28.8 C26.64,28.8 28.8,26.64 28.8,24 C28.8,22.224 27.84,20.688 26.4,19.872 L26.4,0 L24,0 C10.752,0 0,10.752 0,24 C0,37.248 10.752,48 24,48 C37.248,48 48,37.248 48,24 C48,17.376 45.312,11.376 40.968,7.032 z" fill="#009688"/>
  </g>
</svg>
