<?xml version="1.0" encoding="UTF-8"?>
<!DOCTYPE svg PUBLIC "-//W3C//DTD SVG 1.1//EN" "http://www.w3.org/Graphics/SVG/1.1/DTD/svg11.dtd">
<svg version="1.1" xmlns="http://www.w3.org/2000/svg" xmlns:xlink="http://www.w3.org/1999/xlink" x="0" y="0" width="16" height="16" viewBox="0, 0, 16, 16">
  <g id="Layer_1">
    <path d="M0,0 L16,0 L16,16 L0,16 L0,0 z" fill="#FFFFFF" display="none"/>
    <path d="M13.656,2.344 L12.528,3.472 C13.68,4.632 14.4,6.232 14.4,8 C14.4,11.536 11.536,14.4 8,14.4 C4.464,14.4 1.6,11.536 1.6,8 C1.6,4.736 4.04,2.048 7.2,1.656 L7.2,3.272 C4.928,3.656 3.2,5.624 3.2,8 C3.2,10.648 5.352,12.8 8,12.8 C10.648,12.8 12.8,10.648 12.8,8 C12.8,6.672 12.264,5.472 11.392,4.608 L10.264,5.736 C10.84,6.32 11.2,7.12 11.2,8 C11.2,9.768 9.768,11.2 8,11.2 C6.232,11.2 4.8,9.768 4.8,8 C4.8,6.512 5.824,5.272 7.2,4.912 L7.2,6.624 C6.72,6.904 6.4,7.408 6.4,8 C6.4,8.88 7.12,9.6 8,9.6 C8.88,9.6 9.6,8.88 9.6,8 C9.6,7.408 9.28,6.896 8.8,6.624 L8.8,0 L8,0 C3.584,0 0,3.584 0,8 C0,12.416 3.584,16 8,16 C12.416,16 16,12.416 16,8 C16,5.792 15.104,3.792 13.656,2.344 z" fill="#009688"/>
  </g>
</svg>
